<?xml version="1.0" encoding="UTF-8"?> <svg xmlns="http://www.w3.org/2000/svg" viewBox="0 0 44.75 44"><defs><style>.cls-1{fill:#2490ef;}.cls-2{fill:#fff;}</style></defs><g id="Layer_2" data-name="Layer 2"><g id="Layer_1-2" data-name="Layer 1"><path class="cls-1" d="M0,22A22.19,22.19,0,0,1,22.37,0,22.19,22.19,0,0,1,44.75,22,22.19,22.19,0,0,1,22.37,44,22.19,22.19,0,0,1,0,22Z"></path><path class="cls-2" d="M22.72,11.5A10,10,0,0,0,13.23,11V10h-1.4V34h1.4V25.25a8.77,8.77,0,0,1,8.8.17,10.12,10.12,0,0,0,10.54,0l.35-.2V10.9l-1.05.6a8.8,8.8,0,0,1-9.15,0Z"></path></g></g></svg> 