<?xml version="1.0" encoding="UTF-8"?> <svg xmlns="http://www.w3.org/2000/svg" version="1.1" id="Layer_1" x="0" y="0" viewBox="0 0 400 325" style="enable-background:new 0 0 400 325" xml:space="preserve"><style>.st7{display:inline}.st37{font-size:25.8673px}</style><linearGradient id="SVGID_1_" gradientUnits="userSpaceOnUse" x1="20.328" y1="176.136" x2="122.022" y2="176.136"><stop offset="0" style="stop-color:#004789"></stop><stop offset=".468" style="stop-color:#0084ff"></stop><stop offset="1" style="stop-color:#329cff"></stop></linearGradient><path d="M71.44 293.34c17.56-12.51 34.3-23.63 50.58-33.59V58.93H20.33v45.26h51.12v189.15z" style="fill-rule:evenodd;clip-rule:evenodd;fill:url(#SVGID_1_)"></path><linearGradient id="SVGID_00000116236729893181549680000001561330636717998490_" gradientUnits="userSpaceOnUse" x1="20.328" y1="187.453" x2="96.73" y2="187.453"><stop offset="0" style="stop-color:#329cff"></stop><stop offset=".299" style="stop-color:#138dff"></stop><stop offset=".468" style="stop-color:#0084ff"></stop><stop offset="1" style="stop-color:#004789"></stop></linearGradient><path style="fill-rule:evenodd;clip-rule:evenodd;fill:url(#SVGID_00000116236729893181549680000001561330636717998490_)" d="M71.44 293.34c8.61-6.14 17.03-11.94 25.29-17.43V81.57h-76.4v22.63h51.12v189.14z"></path><linearGradient id="SVGID_00000181052716183630603080000012893389189928066186_" gradientUnits="userSpaceOnUse" x1="70.552" y1="241.379" x2="339.089" y2="241.379"><stop offset=".005" style="stop-color:#f2a82d"></stop><stop offset="1" style="stop-color:#ca4a26"></stop></linearGradient><path style="fill-rule:evenodd;clip-rule:evenodd;fill:url(#SVGID_00000181052716183630603080000012893389189928066186_)" d="M71.44 297.56h92.34c31.95-30.62 97.66-79.16 176.19-112.36-112.59 14.15-194.89 59.64-268.53 112.36z"></path><linearGradient id="SVGID_00000068654025951828082650000007508949425249082262_" gradientUnits="userSpaceOnUse" x1="71.436" y1="241.379" x2="339.973" y2="241.379"><stop offset="0" style="stop-color:#ca4a26"></stop><stop offset=".995" style="stop-color:#f2a82d"></stop></linearGradient><path style="fill-rule:evenodd;clip-rule:evenodd;fill:url(#SVGID_00000068654025951828082650000007508949425249082262_)" d="M71.44 297.56h50.12c58.56-46.8 121.13-86.77 218.42-112.36-112.6 14.15-194.9 59.64-268.54 112.36z"></path><linearGradient id="SVGID_00000111149290544926812510000014532128008375970199_" gradientUnits="userSpaceOnUse" x1="127.457" y1="126.976" x2="280.366" y2="126.976"><stop offset="0" style="stop-color:#004789"></stop><stop offset=".468" style="stop-color:#0084ff"></stop><stop offset="1" style="stop-color:#329cff"></stop></linearGradient><path style="fill-rule:evenodd;clip-rule:evenodd;fill:url(#SVGID_00000111149290544926812510000014532128008375970199_)" d="M149.54 237.72c1.43 1.3 2.88 2.54 4.37 3.71a577.04 577.04 0 0 1 35.78-17.65c29.56-13.3 59.48-23.61 90.42-31.12.17-2.19.26-4.41.26-6.67v-3.32c0-23.26-8.71-41.98-27.36-55.01 14.88-12.04 22.37-28 22.37-47.66v-3.33c0-18.33-6.6-33.85-20.27-46.11-14.22-12.75-31.57-18.05-50.53-18.05h-1.34c-18.96 0-36.31 5.3-50.53 18.05-13.67 12.26-20.28 27.78-20.28 46.11V80c0 19.65 7.5 35.62 22.37 47.66-18.65 13.02-27.36 31.75-27.36 55.01v3.32c.02 20.39 6.99 37.92 22.1 51.73zm33.48-158.05c0-6.24 1.41-12.34 5.69-17.07 4.1-4.52 9.22-6.18 15.2-6.15 5.99-.03 11.1 1.62 15.2 6.15 4.28 4.72 5.69 10.83 5.69 17.07v6.31c0 6.18-1.47 12.08-5.69 16.74-4.11 4.52-9.21 6.18-15.2 6.15-5.98.03-11.1-1.62-15.2-6.15-4.22-4.66-5.69-10.56-5.69-16.74v-6.31zm-4.98 97.01c0-7.71 1.63-15.54 7.01-21.37 5.08-5.51 11.53-7.53 18.87-7.49 7.35-.03 13.79 1.98 18.88 7.49 5.37 5.83 7 13.66 7 21.37v8.31c0 7.72-1.63 15.54-7 21.37-5.09 5.51-11.53 7.53-18.88 7.5-7.34.04-13.79-1.99-18.87-7.5-5.37-5.83-7.01-13.65-7.01-21.37v-8.31z"></path><linearGradient id="SVGID_00000158744829382149630910000012835054035908117664_" gradientUnits="userSpaceOnUse" x1="152.761" y1="131.966" x2="255.068" y2="131.966"><stop offset="0" style="stop-color:#329cff"></stop><stop offset=".299" style="stop-color:#138dff"></stop><stop offset=".468" style="stop-color:#0084ff"></stop><stop offset="1" style="stop-color:#004789"></stop></linearGradient><path style="fill-rule:evenodd;clip-rule:evenodd;fill:url(#SVGID_00000158744829382149630910000012835054035908117664_)" d="M152.76 186.65c0 21.15 10.59 35.3 24.75 42.79 4.06-1.94 8.11-3.83 12.18-5.66 21.02-9.46 42.22-17.4 63.84-23.91.99-4.06 1.53-8.46 1.53-13.23 0-39.95-15.8-53.42-35.31-58.64 18.48-4.95 30.33-23.58 30.33-47.34 0-24.64-15.09-46.18-46.18-46.18s-46.18 21.53-46.18 46.18c0 23.76 11.85 42.38 30.33 47.34-19.49 5.23-35.29 18.7-35.29 58.65zm30.26-100.67v-6.31c0-6.24 1.41-12.34 5.69-17.07 4.1-4.52 9.22-6.18 15.2-6.15 5.99-.03 11.1 1.62 15.2 6.15 4.28 4.72 5.69 10.83 5.69 17.07v6.31c0 6.18-1.47 12.08-5.69 16.74-4.11 4.52-9.21 6.18-15.2 6.15-5.98.03-11.1-1.62-15.2-6.15-4.22-4.66-5.69-10.56-5.69-16.74zm-4.98 90.7c0-7.71 1.63-15.54 7.01-21.37 5.08-5.51 11.53-7.53 18.87-7.49 7.35-.03 13.79 1.98 18.88 7.49 5.37 5.83 7 13.66 7 21.37v8.31c0 7.72-1.63 15.54-7 21.37-5.09 5.51-11.53 7.53-18.88 7.5-7.34.04-13.79-1.99-18.87-7.5-5.37-5.83-7.01-13.65-7.01-21.37v-8.31z"></path><text transform="translate(224.179 273.864)" class="st37" style="font-family:'Mulish-Regular';fill:#2c2f38">YEARS OF</text><text transform="translate(221.651 296.806)" class="st37" style="font-family:'Poppins-Bold';fill:#0084ff">EXCELLENCE</text></svg> 