<svg xmlns="http://www.w3.org/2000/svg" viewBox="0 0 50 50"><defs><style>.cls-1{fill:#0084ff;}.cls-2{fill:#f7fbff;}</style></defs><g id="Layer_2" data-name="Layer 2"><g id="Layer_1-2" data-name="Layer 1"><g id="E-Commerce_Web_App_Development" data-name="E-Commerce Web App Development"><path class="cls-1" d="M0,10A10,10,0,0,1,10,0H40A10,10,0,0,1,50,10V40A10,10,0,0,1,40,50H10A10,10,0,0,1,0,40Z"/><path class="cls-2" d="M37.18,29.68l-2.57-2.62c-.18-.17-.06-.37-.06-.55s.07-.32.08-.47c0-.52.07-1,0-1.54A9.62,9.62,0,0,0,33.31,20a16.46,16.46,0,0,0-1-1.44,8.85,8.85,0,0,0-3.6-2.62,19.62,19.62,0,0,0-2-.61,5.83,5.83,0,0,0-.84-.09,8.77,8.77,0,0,0-.88,0c-.38,0-.77.06-1.15.08a7.81,7.81,0,0,0-1.9.43A9.61,9.61,0,0,0,19,17.25a9.37,9.37,0,0,0-1.13,1.05,10.59,10.59,0,0,0-1.85,3,9.77,9.77,0,0,0-.58,2,8.75,8.75,0,0,0-.13,2.23,9.74,9.74,0,0,0,1.1,4,14.3,14.3,0,0,0,1.06,1.6,5.75,5.75,0,0,0,.86,1,9,9,0,0,0,3,1.94,10.68,10.68,0,0,0,2.05.6,14,14,0,0,0,2.15.13,7.43,7.43,0,0,0,.92-.11.33.33,0,0,1,.23.07l2.69,2.74c-.22.09-.41.19-.61.25s-.36.08-.54.14-.16.23-.18.36c-.08.42-.13.85-.2,1.28s-.13.83-.18,1.24-.25.85-.82.86c-1.15,0-2.31,0-3.46,0-.62,0-.9-.32-1-.94s-.16-1-.25-1.5S22,38.46,22,38.08c0-.13-.07-.16-.19-.19a13,13,0,0,1-3.39-1.42c-.21-.13-.28-.1-.58.12-.73.56-1.46,1.1-2.21,1.63a.77.77,0,0,1-1.05-.14c-.8-.82-1.6-1.65-2.43-2.46A.92.92,0,0,1,12,34.39c.56-.77,1.11-1.54,1.67-2.3a.29.29,0,0,0,0-.36,12.48,12.48,0,0,1-1.41-3.47c0-.21-.19-.21-.3-.22-.5-.09-1-.15-1.51-.22L9.19,27.6a.78.78,0,0,1-.6-.72c0-1.19,0-2.38,0-3.57a.86.86,0,0,1,.57-.91,3.48,3.48,0,0,1,.56-.12c.42-.08.85-.14,1.28-.21l1.14-.19a.23.23,0,0,0,.17-.16,12.46,12.46,0,0,1,1.43-3.48c.16-.26,0-.4-.15-.56-.47-.68-1-1.33-1.44-2a1.06,1.06,0,0,1-.3-.7.94.94,0,0,1,.28-.63c.82-.81,1.64-1.63,2.43-2.46a.89.89,0,0,1,1.2-.08c.57.44,1.14.86,1.72,1.28l.57.42a.25.25,0,0,0,.34,0,10.27,10.27,0,0,1,2.42-1.13c.34-.12.68-.21,1-.31.2-.05.17-.23.19-.37.09-.43.15-.86.21-1.3s.14-.8.18-1.2a.85.85,0,0,1,.89-.87c1.19,0,2.37,0,3.56,0a.74.74,0,0,1,.73.61c.09.46.14.93.22,1.4s.13.8.2,1.2c0,0,0,0,0,0,0,.39.19.49.5.58a10.93,10.93,0,0,1,3.14,1.35c.27.17.4,0,.56-.16l2.18-1.6a.79.79,0,0,1,1.09.12c.83.86,1.69,1.7,2.52,2.55a.88.88,0,0,1,0,1.14c-.49.66-1,1.32-1.44,2l-.09.12c-.24.42-.32.25,0,.71a13,13,0,0,1,1.31,3.29c.06.26.23.23.38.26.41.08.84.14,1.26.2s.64.1,1,.15a4,4,0,0,1,.58.13.86.86,0,0,1,.56.91c0,1.1,0,2.21,0,3.31a.91.91,0,0,1-.94,1c-.5.05-1,.17-1.5.25s-.75.12-1.12.18a.3.3,0,0,0-.16.17c-.12.36-.21.74-.32,1.1A3.77,3.77,0,0,1,37.18,29.68Z"/><path class="cls-2" d="M35,38.54a3,3,0,0,1-2.09-.71c-.7-.62-1.34-1.3-2-2-1.46-1.47-2.93-3-4.37-4.45-.24-.24-.45-.17-.7-.14a5.31,5.31,0,0,1-1.38.05A8.26,8.26,0,0,1,23,31a6.09,6.09,0,0,1-3.92-4.47A7.11,7.11,0,0,1,19,24.88a7.29,7.29,0,0,1,.25-1.47c.07-.33.34-.38.59-.13,1.14,1.16,2.3,2.31,3.43,3.49a1.31,1.31,0,0,0,1.68.23,2,2,0,0,0,.21-.2c.52-.52,1.05-1,1.55-1.56a1.27,1.27,0,0,0,.13-1.5,1.72,1.72,0,0,0-.31-.4L23,19.8a.21.21,0,0,1,.07-.37,4.35,4.35,0,0,1,.78-.23,5.69,5.69,0,0,1,1-.12,10.08,10.08,0,0,1,1.22.12,4.67,4.67,0,0,1,1.71.57,6.92,6.92,0,0,1,1.49,1.1,6.22,6.22,0,0,1,1.61,2.91,5.19,5.19,0,0,1,.13,1,8,8,0,0,1,0,1c0,.21-.07.43-.08.64a.33.33,0,0,0,.07.26l2.07,2.1,1.61,1.63c.49.5,1,1,1.48,1.5a18.39,18.39,0,0,1,1.4,1.53A2.82,2.82,0,0,1,38.14,35a3.17,3.17,0,0,1-.52,2.1,3.3,3.3,0,0,1-2.08,1.43A3.87,3.87,0,0,1,35,38.54Z"/></g></g></g></svg>