<svg width="45" height="44" viewBox="0 0 45 44" fill="none" xmlns="http://www.w3.org/2000/svg">
<path d="M0.00195312 22C0.00195312 9.84974 10.0193 0 22.3764 0C34.7335 0 44.7509 9.84974 44.7509 22C44.7509 34.1503 34.7335 44 22.3764 44C10.0193 44 0.00195312 34.1503 0.00195312 22Z" fill="#2490EF"/>
<path d="M13.7361 25.3788C13.5979 25.6498 13.6517 25.9774 13.8694 26.1916L14.0443 26.3635C14.5495 25.7748 15.1384 25.136 15.8525 24.434C15.903 24.3843 15.9549 24.3604 16.0056 24.3146L14.8806 23.2083C14.2266 24.3713 13.8452 25.166 13.7361 25.3788Z" fill="white"/>
<path d="M19.8987 28.4113C19.1829 29.1151 18.5348 29.6952 17.9395 30.1923L18.1763 30.4252C18.3961 30.6413 18.7324 30.6933 19.0089 30.5534C19.3793 30.3657 19.9618 30.0962 21.1983 29.4191L20.0203 28.2607C19.9737 28.3107 19.9494 28.3616 19.8987 28.4113Z" fill="white"/>
<path d="M19.5145 24.8096C18.9977 24.3015 17.5444 24.7571 16.8618 25.4281C14.5779 27.6737 13.5464 29.2658 13.0833 30.2059C12.9505 30.4753 13.0058 30.7977 13.2211 31.0094C13.4368 31.2216 13.7653 31.2754 14.0394 31.1449C14.974 30.6986 16.5735 29.6892 18.8845 27.417C19.6352 26.6786 20.0056 25.2926 19.5151 24.8102L19.5145 24.8096Z" fill="white"/>
<path d="M12.4039 19.3616L10.3813 21.3503C10.1527 21.5752 10.1057 21.9232 10.2677 22.199C10.4258 22.4711 10.7569 22.6097 11.072 22.5268C12.1652 22.2385 13.127 22.1168 13.7747 22.2801C14.6961 20.6693 15.6863 19.1865 16.7349 17.8396C16.1283 17.4573 14.124 17.6702 12.4039 19.3616Z" fill="white"/>
<path d="M22.2763 33.9247C22.5518 34.0617 22.8853 34.0087 23.1034 33.7941L25.1261 31.8054C26.692 30.2653 26.9677 28.2783 26.6123 27.6482C25.0846 28.7803 23.5369 29.7363 22.0929 30.5367C22.1925 31.0898 22.1262 31.6265 21.8907 33.1939C21.8447 33.4973 22.0041 33.7908 22.2763 33.9247Z" fill="white"/>
<path d="M24.3694 17.0532C23.5331 17.8757 23.5331 19.2136 24.3694 20.0361C25.2059 20.8586 26.5669 20.8586 27.4034 20.0361C28.2399 19.2136 28.2399 17.8757 27.4034 17.0532C26.5669 16.2307 25.2059 16.2307 24.3694 17.0532Z" fill="white"/>
<path d="M34.5403 10.6859C34.5146 10.3381 34.233 10.0633 33.8805 10.0373C32.1243 9.90729 30.3749 10.1197 28.6602 10.6353C28.7892 11.7936 29.3985 13.0472 30.4388 14.07C31.4915 15.1049 32.801 15.7039 34.0001 15.8159C34.4619 14.2246 34.6809 12.5202 34.5403 10.6859Z" fill="white"/>
<path d="M29.4258 15.0645C28.2359 13.8944 27.5092 12.4911 27.2761 11.1248C22.982 12.8564 18.8713 16.6379 15.623 21.9501L17.2368 23.5369C18.3395 23.0968 19.678 22.9805 20.527 23.8151C21.3771 24.6511 21.2566 25.9667 20.8092 27.0495L22.476 28.6884C26.6329 26.2251 31.4724 22.3442 33.5304 17.1808C32.1069 16.9693 30.6352 16.2535 29.4258 15.0645ZM28.4143 21.0306C27.0204 22.4011 24.752 22.4011 23.358 21.0306C21.9639 19.6599 21.9639 17.4293 23.358 16.0587C24.752 14.6882 27.0204 14.6882 28.4143 16.0587C29.8083 17.4294 29.8083 19.6599 28.4143 21.0306Z" fill="white"/>
</svg>
