<svg width="44" height="44" viewBox="0 0 44 44" fill="none" xmlns="http://www.w3.org/2000/svg">
<path d="M0 22C0 9.84974 9.84974 0 22 0C34.1503 0 44 9.84974 44 22C44 34.1503 34.1503 44 22 44C9.84974 44 0 34.1503 0 22Z" fill="#FF5502"/>
<path d="M17.3283 34.0001C17.0471 33.8751 16.9534 33.6626 16.9596 33.3627C16.9659 32.0379 16.9596 30.7069 16.9659 29.3821C16.9659 29.1134 16.8847 28.9259 16.6722 28.7572C14.8787 27.3387 13.7477 25.5077 13.429 23.2456C13.2915 22.2583 13.2977 21.2334 13.3227 20.2336C13.3477 19.3837 14.1039 18.7526 14.9225 18.7838C15.7786 18.8151 16.441 19.4775 16.466 20.3586C16.4847 20.946 16.466 21.5334 16.4722 22.1145C16.5222 24.7329 18.5781 27.0387 21.1715 27.4012C24.2085 27.8198 26.9205 25.8889 27.4579 22.8707C27.5642 22.2708 27.5267 21.6396 27.5454 21.0272C27.5579 20.7523 27.5392 20.4773 27.5642 20.2086C27.6516 19.39 28.3203 18.7901 29.1264 18.7838C29.9388 18.7776 30.6637 19.3962 30.7011 20.2211C30.7699 21.7521 30.7511 23.2831 30.2137 24.7516C29.6201 26.3576 28.6765 27.7074 27.3205 28.7572C27.0642 28.9572 26.9643 29.1696 26.9643 29.4946C26.9768 30.7694 26.9643 32.0379 26.9768 33.3127C26.983 33.6127 26.9018 33.8439 26.6456 34.0001C23.5461 34.0001 20.4341 34.0001 17.3283 34.0001Z" fill="#FEFEFF"/>
<path d="M19.5228 15.8155C19.5352 15.5655 19.5477 15.3155 19.5727 15.0656C19.5977 14.8344 19.529 14.6407 19.379 14.4594C19.0478 14.0845 18.7354 13.6971 18.4167 13.3096C18.0792 12.8972 18.2042 12.4973 18.7229 12.3535C19.1978 12.2223 19.6665 12.0848 20.1414 11.9661C20.3976 11.8974 20.5788 11.7599 20.7226 11.5349C20.9788 11.1225 21.2475 10.7225 21.5162 10.3226C21.8036 9.89143 22.2161 9.89143 22.5098 10.3289C22.7847 10.7475 23.0659 11.16 23.3346 11.5787C23.4534 11.7661 23.6033 11.8849 23.8283 11.9411C24.3282 12.0661 24.8219 12.216 25.3156 12.3598C25.8342 12.5098 25.953 12.9034 25.6093 13.3221C25.3031 13.6971 24.9969 14.072 24.6844 14.4407C24.5157 14.6344 24.4469 14.8469 24.4719 15.1031C24.5157 15.6155 24.5344 16.1342 24.5532 16.6466C24.5719 17.1215 24.222 17.359 23.7783 17.1902C23.3034 17.009 22.8347 16.8215 22.366 16.6278C22.1348 16.5341 21.9224 16.5278 21.6911 16.6216C21.2225 16.8215 20.7538 17.0028 20.2789 17.184C19.8165 17.3652 19.479 17.1277 19.4915 16.6403C19.4915 16.3654 19.5103 16.0904 19.5228 15.8155Z" fill="#FEFEFF"/>
<path d="M19.2812 21.9896C19.2812 20.5023 20.4873 19.29 21.9746 19.29C23.4618 19.29 24.6866 20.5148 24.6804 22.0021C24.6741 23.4894 23.4618 24.6892 21.9683 24.6829C20.4811 24.6829 19.2812 23.4769 19.2812 21.9896Z" fill="#FEFEFF"/>
<path d="M27.6214 16.5776C27.2839 16.5214 27.0527 16.3839 26.9215 16.1027C26.7902 15.809 26.834 15.534 27.0527 15.3028C27.3527 14.9841 27.6651 14.6842 27.9775 14.3717C28.6337 13.7156 29.2898 13.0594 29.946 12.4033C30.2022 12.1471 30.5271 12.0971 30.8271 12.2533C31.102 12.397 31.2645 12.697 31.1958 13.0157C31.1645 13.1594 31.0895 13.3156 30.9896 13.4219C30.0397 14.3905 29.0774 15.3466 28.1088 16.3027C27.9838 16.4276 27.7838 16.4839 27.6214 16.5776Z" fill="#FEFEFF"/>
<path d="M16.6189 16.5778C16.4502 16.4904 16.2503 16.4404 16.119 16.3154C15.1442 15.3593 14.1818 14.3907 13.2195 13.4221C12.9258 13.1284 12.932 12.6722 13.207 12.391C13.4945 12.0973 13.9444 12.0911 14.2568 12.3973C15.2192 13.3471 16.1753 14.3095 17.1376 15.2656C17.3688 15.4968 17.4313 15.778 17.3063 16.0842C17.1814 16.3716 16.9564 16.5154 16.6189 16.5778Z" fill="#FEFEFF"/>
</svg>
