<?xml version="1.0" encoding="UTF-8"?> <svg xmlns="http://www.w3.org/2000/svg" viewBox="0 0 44 44"><defs><style>.cls-1{fill:#ff5502;}.cls-2{fill:#fff;fill-rule:evenodd;}</style></defs><g id="Layer_2" data-name="Layer 2"><g id="Layer_1-2" data-name="Layer 1"><path class="cls-1" d="M0,22A22,22,0,1,1,22,44,22,22,0,0,1,0,22Z"></path><path class="cls-2" d="M24.46,4.55A4.16,4.16,0,1,1,20.3,8.71,4.16,4.16,0,0,1,24.46,4.55ZM17.17,21H31.75a.74.74,0,0,0,.73-.91,8.22,8.22,0,0,0-16,0,.74.74,0,0,0,.73.91Zm6.08,7.5a1.21,1.21,0,0,0,1.49-.87,1.27,1.27,0,0,0-.87-1.51,34.53,34.53,0,0,1-5.51-1.63c-2.21-.8-2.78-1-5,.27L9.48,27.06l3.25,5.75.26-.15a.68.68,0,0,1,.5-.07L22.32,35a3.51,3.51,0,0,0,3.15-.46L37.59,27a1.35,1.35,0,0,0,.51-1.3,1.22,1.22,0,0,0-.65-1c-.63-.32-1.73-.23-3.42.76l-6.71,3.91a5,5,0,0,1-1.67.61c-1.66.28-4.17-.51-5.66-.93l-1.44-.41a.66.66,0,1,1,.35-1.28c1.44.38,2.88.85,4.35,1.16ZM7.46,26.2l5.3,9.37a1,1,0,0,1-.35,1.29l-1.81,1a1,1,0,0,1-1.29-.36L4,28.15a1,1,0,0,1,.36-1.29l1.8-1A1,1,0,0,1,7.46,26.2ZM6.25,27.6a.65.65,0,1,0,.73.55.66.66,0,0,0-.73-.55Z"></path></g></g></svg> 