<svg xmlns="http://www.w3.org/2000/svg" viewBox="0 0 50 50"><defs><style>.cls-1{fill:#ffa510;}.cls-2{fill:#fff;}</style></defs><g id="Layer_2" data-name="Layer 2"><g id="Layer_1-2" data-name="Layer 1"><g id="Website_Development" data-name="Website Development"><path class="cls-1" d="M0,10A10,10,0,0,1,10,0H40A10,10,0,0,1,50,10V40A10,10,0,0,1,40,50H10A10,10,0,0,1,0,40Z"/><path class="cls-2" d="M25,15.49A9.51,9.51,0,1,0,34.51,25,9.51,9.51,0,0,0,25,15.49ZM19.72,27.64a1.05,1.05,0,0,0,1.05-1.06.53.53,0,0,1,1.06,0,2.12,2.12,0,1,1-4.23,0V23.42a2.12,2.12,0,1,1,4.23,0,.53.53,0,0,1-1.06,0,1.06,1.06,0,1,0-2.11,0v3.16A1.05,1.05,0,0,0,19.72,27.64Zm7.39.53a.53.53,0,1,1-1.05,0V24.74l-.57,1.5a.51.51,0,0,1-.67.31.48.48,0,0,1-.31-.31l-.57-1.5v3.43a.53.53,0,1,1-1.05,0V21.83a.52.52,0,0,1,.52-.53.54.54,0,0,1,.5.34L25,24.55l1.09-2.9a.52.52,0,0,1,.68-.31.51.51,0,0,1,.34.49Zm5.29-4.75a.53.53,0,0,1-1.06,0,1.06,1.06,0,1,0-1.06,1,2.12,2.12,0,1,1-2.11,2.11.53.53,0,0,1,1.06,0,1.06,1.06,0,1,0,1.05-1,2.12,2.12,0,1,1,2.12-2.11Z"/><path class="cls-2" d="M40.24,23.56a.93.93,0,0,0-.79-.81l-2-.33a12.43,12.43,0,0,0-1.81-4.37l1.21-1.68a1,1,0,0,0,0-1.14c-.31-.37-.63-.72-1-1.06s-.69-.66-1.06-1a1,1,0,0,0-1.14,0L32,14.4a12.43,12.43,0,0,0-4.37-1.81l-.33-2a.94.94,0,0,0-.81-.79,13.86,13.86,0,0,0-2.88,0,.94.94,0,0,0-.81.79l-.33,2a12.43,12.43,0,0,0-4.37,1.81l-1.68-1.21a1,1,0,0,0-1.14,0c-.37.31-.72.63-1.06,1s-.66.69-1,1.06a1,1,0,0,0,0,1.14l1.21,1.68a12.43,12.43,0,0,0-1.81,4.37l-2,.33a.94.94,0,0,0-.79.81,13.86,13.86,0,0,0,0,2.88,1,1,0,0,0,.79.81l2,.33A12.43,12.43,0,0,0,14.4,32l-1.21,1.68a1,1,0,0,0,0,1.14c.31.37.63.72,1,1.06s.69.66,1.06,1a1,1,0,0,0,1.14,0l1.68-1.21a12.43,12.43,0,0,0,4.37,1.81l.33,2a.94.94,0,0,0,.81.79,13.86,13.86,0,0,0,2.88,0,.94.94,0,0,0,.81-.79l.33-2A12.43,12.43,0,0,0,32,35.6l1.68,1.21a1,1,0,0,0,1.14,0c.37-.31.72-.63,1.06-1s.66-.69,1-1.06a1,1,0,0,0,0-1.14L35.6,32a12.43,12.43,0,0,0,1.81-4.37l2-.33a1,1,0,0,0,.79-.81,13.86,13.86,0,0,0,0-2.88ZM25,35.57A10.57,10.57,0,1,1,35.57,25,10.57,10.57,0,0,1,25,35.57Z"/></g></g></g></svg>